<svg width="1398" height="70" viewBox="0 0 1398 70" fill="none" xmlns="http://www.w3.org/2000/svg">
<rect width="1398" height="70" fill="#F5F7FF"/>
<g clip-path="url(#clip0)">
<path d="M444.285 31.1111L438.121 36.5228H422.857C421.433 36.5209 420.058 37.0276 418.99 37.9472L426.689 31.1856L426.807 31.0834L436.453 22.6054C438.008 21.2398 440.191 20.7879 442.181 21.4198C444.17 22.0517 445.663 23.6715 446.097 25.669C446.531 27.6665 445.84 29.7383 444.285 31.1038V31.1111Z" fill="#F15B41"/>
<path d="M422.857 32.5798C426.091 32.5798 428.713 30.0204 428.713 26.8631C428.713 23.7059 426.091 21.1464 422.857 21.1464C419.622 21.1464 417 23.7059 417 26.8631C417 30.0204 419.622 32.5798 422.857 32.5798Z" fill="#F99D1D"/>
<path d="M422.857 36.5228C421.433 36.5209 420.058 37.0276 418.99 37.9472L418.941 37.991C416.536 40.102 416.34 43.7161 418.503 46.0633C420.666 48.4105 424.368 48.6019 426.773 46.4909L438.123 36.5243L422.857 36.5228Z" fill="#272560"/>
<path d="M438.113 36.5272L426.762 46.4938C425.687 47.4373 424.291 47.9574 422.846 47.9534L440.359 47.9533C443.737 47.9006 446.122 45.42 446.122 42.2373C446.122 39.0547 443.556 36.5712 440.359 36.5214L438.113 36.5272Z" fill="#00B6BD"/>
<path d="M454.612 43.1742C454.124 43.1918 453.653 43.0041 453.318 42.6591C452.989 42.3108 452.814 41.8513 452.83 41.3791C452.825 40.9035 452.946 40.4347 453.181 40.0174C453.387 39.6444 453.639 39.2969 453.931 38.9827L461.177 31.0111H454.861C454.249 31.0111 453.811 30.8068 453.571 30.4011C453.337 29.9935 453.221 29.5322 453.234 29.0657C453.217 28.616 453.35 28.1731 453.613 27.8032C453.874 27.4531 454.299 27.2545 454.742 27.2749H465.902C466.374 27.2537 466.834 27.4214 467.176 27.739C467.492 28.0469 467.653 28.4848 467.653 29.0394C467.666 29.4712 467.573 29.9 467.383 30.2901C467.199 30.6301 466.97 30.9443 466.7 31.2242L459.154 39.4366H466.304C466.734 39.4262 467.144 39.6159 467.407 39.9474C467.687 40.318 467.828 40.7707 467.807 41.2302C467.827 41.709 467.709 42.1838 467.467 42.6007C467.222 42.9816 466.789 43.1757 466.18 43.1757L454.612 43.1742Z" fill="#272560"/>
<path d="M472.142 43.3844C470.156 43.3844 469.742 42.392 469.742 41.5601V29.4174C469.742 28.7825 469.939 28.2688 470.329 27.8908C470.719 27.5128 471.34 27.3201 472.177 27.3201C472.882 27.3201 473.44 27.4763 473.837 27.7857C474.235 28.0951 474.455 28.5942 474.455 29.2364V41.4959C474.455 42.1628 474.239 42.6532 473.813 42.9553C473.387 43.2574 472.84 43.3844 472.142 43.3844ZM472.142 26.0168C471.368 26.0168 470.734 25.7965 470.254 25.3615C469.774 24.9266 469.523 24.3268 469.523 23.5898C469.505 22.9364 469.769 22.3053 470.251 21.8501C470.726 21.3962 471.364 21.1641 472.142 21.1641C472.784 21.1655 473.408 21.3704 473.92 21.7479C474.478 22.1478 474.761 22.7695 474.761 23.5956C474.761 24.3326 474.515 24.9295 474.031 25.3688C473.546 25.8081 472.912 26.0212 472.142 26.0212V26.0168Z" fill="#272560"/>
<path d="M479.633 48.0374C477.776 48.0374 477.383 47.0289 477.383 46.1824V29.0058C477.367 28.4678 477.579 27.9472 477.971 27.5668C478.359 27.1888 478.982 26.9961 479.819 26.9961C480.339 26.991 480.853 27.1071 481.319 27.3347C481.812 27.5814 482.069 28.0645 482.069 28.7577C482.169 28.6458 482.276 28.531 482.391 28.4133C482.706 28.1019 483.059 27.8285 483.441 27.5989C484.37 27.0347 485.446 26.7428 486.541 26.7582C487.591 26.7384 488.63 26.9573 489.577 27.3975C490.444 27.8138 491.198 28.4215 491.781 29.1722C492.387 29.9751 492.83 30.8837 493.086 31.8489C493.378 32.9395 493.521 34.0627 493.512 35.1896C493.522 36.3376 493.358 37.4807 493.023 38.5814C492.727 39.5592 492.241 40.4728 491.592 41.2727C490.966 42.0264 490.173 42.6327 489.273 43.046C488.293 43.4832 487.225 43.7011 486.147 43.6838C485.425 43.7039 484.705 43.6053 484.017 43.3919C483.523 43.2289 483.053 43.0026 482.62 42.7191C482.386 42.5641 482.17 42.3845 481.976 42.1834V46.0948C481.976 46.7749 481.785 47.277 481.409 47.5864C481.032 47.8958 480.453 48.0374 479.633 48.0374ZM485.341 30.6492C484.83 30.6372 484.325 30.7533 483.873 30.9863C483.448 31.2208 483.084 31.5468 482.808 31.9394C482.498 32.3835 482.272 32.8777 482.141 33.3989C481.985 34.0045 481.909 34.6268 481.914 35.2509C481.914 36.6725 482.214 37.8123 482.814 38.6398C483.414 39.4673 484.228 39.8541 485.347 39.8541C486.466 39.8541 487.281 39.4396 487.846 38.5858C488.412 37.732 488.713 36.5951 488.713 35.2509C488.715 34.6284 488.637 34.0081 488.479 33.4047C488.347 32.8858 488.126 32.3923 487.825 31.9452C487.558 31.5521 487.198 31.2265 486.775 30.9951C486.336 30.7618 485.842 30.6427 485.341 30.6492Z" fill="#272560"/>
</g>
<path d="M505.5 24V47" stroke="#00AEB8" stroke-width="2" stroke-linecap="round"/>
<path d="M525.67 42.162C524.71 42.162 523.846 41.952 523.078 41.532C522.31 41.1 521.704 40.494 521.26 39.714C520.828 38.934 520.612 38.034 520.612 37.014C520.612 35.994 520.834 35.094 521.278 34.314C521.734 33.534 522.352 32.934 523.132 32.514C523.912 32.082 524.782 31.866 525.742 31.866C526.702 31.866 527.572 32.082 528.352 32.514C529.132 32.934 529.744 33.534 530.188 34.314C530.644 35.094 530.872 35.994 530.872 37.014C530.872 38.034 530.638 38.934 530.17 39.714C529.714 40.494 529.09 41.1 528.298 41.532C527.518 41.952 526.642 42.162 525.67 42.162ZM525.67 39.966C526.126 39.966 526.552 39.858 526.948 39.642C527.356 39.414 527.68 39.078 527.92 38.634C528.16 38.19 528.28 37.65 528.28 37.014C528.28 36.066 528.028 35.34 527.524 34.836C527.032 34.32 526.426 34.062 525.706 34.062C524.986 34.062 524.38 34.32 523.888 34.836C523.408 35.34 523.168 36.066 523.168 37.014C523.168 37.962 523.402 38.694 523.87 39.21C524.35 39.714 524.95 39.966 525.67 39.966ZM546.545 32.028L543.629 42H540.911L539.093 35.034L537.275 42H534.539L531.605 32.028H534.161L535.925 39.624L537.833 32.028H540.497L542.369 39.606L544.133 32.028H546.545ZM553.434 31.884C554.622 31.884 555.582 32.262 556.314 33.018C557.046 33.762 557.412 34.806 557.412 36.15V42H554.892V36.492C554.892 35.7 554.694 35.094 554.298 34.674C553.902 34.242 553.362 34.026 552.678 34.026C551.982 34.026 551.43 34.242 551.022 34.674C550.626 35.094 550.428 35.7 550.428 36.492V42H547.908V32.028H550.428V33.27C550.764 32.838 551.19 32.502 551.706 32.262C552.234 32.01 552.81 31.884 553.434 31.884ZM565.597 30.534C565.285 30.534 565.021 30.426 564.805 30.21C564.589 29.994 564.481 29.73 564.481 29.418C564.481 29.106 564.589 28.842 564.805 28.626C565.021 28.41 565.285 28.302 565.597 28.302C565.897 28.302 566.149 28.41 566.353 28.626C566.569 28.842 566.677 29.106 566.677 29.418C566.677 29.73 566.569 29.994 566.353 30.21C566.149 30.426 565.897 30.534 565.597 30.534ZM566.389 32.136V42H564.751V32.136H566.389ZM571.179 33.486V39.3C571.179 39.78 571.281 40.122 571.485 40.326C571.689 40.518 572.043 40.614 572.547 40.614H573.753V42H572.277C571.365 42 570.681 41.79 570.225 41.37C569.769 40.95 569.541 40.26 569.541 39.3V33.486H568.263V32.136H569.541V29.652H571.179V32.136H573.753V33.486H571.179ZM585.342 31.956C586.542 31.956 587.514 32.322 588.258 33.054C589.002 33.774 589.374 34.818 589.374 36.186V42H587.754V36.42C587.754 35.436 587.508 34.686 587.016 34.17C586.524 33.642 585.852 33.378 585 33.378C584.136 33.378 583.446 33.648 582.93 34.188C582.426 34.728 582.174 35.514 582.174 36.546V42H580.536V32.136H582.174V33.54C582.498 33.036 582.936 32.646 583.488 32.37C584.052 32.094 584.67 31.956 585.342 31.956ZM596.352 42.162C595.428 42.162 594.588 41.952 593.832 41.532C593.088 41.112 592.5 40.518 592.068 39.75C591.648 38.97 591.438 38.07 591.438 37.05C591.438 36.042 591.654 35.154 592.086 34.386C592.53 33.606 593.13 33.012 593.886 32.604C594.642 32.184 595.488 31.974 596.424 31.974C597.36 31.974 598.206 32.184 598.962 32.604C599.718 33.012 600.312 33.6 600.744 34.368C601.188 35.136 601.41 36.03 601.41 37.05C601.41 38.07 601.182 38.97 600.726 39.75C600.282 40.518 599.676 41.112 598.908 41.532C598.14 41.952 597.288 42.162 596.352 42.162ZM596.352 40.722C596.94 40.722 597.492 40.584 598.008 40.308C598.524 40.032 598.938 39.618 599.25 39.066C599.574 38.514 599.736 37.842 599.736 37.05C599.736 36.258 599.58 35.586 599.268 35.034C598.956 34.482 598.548 34.074 598.044 33.81C597.54 33.534 596.994 33.396 596.406 33.396C595.806 33.396 595.254 33.534 594.75 33.81C594.258 34.074 593.862 34.482 593.562 35.034C593.262 35.586 593.112 36.258 593.112 37.05C593.112 37.854 593.256 38.532 593.544 39.084C593.844 39.636 594.24 40.05 594.732 40.326C595.224 40.59 595.764 40.722 596.352 40.722ZM616.704 32.136L613.626 42H611.934L609.558 34.17L607.182 42H605.49L602.394 32.136H604.068L606.336 40.416L608.784 32.136H610.458L612.852 40.434L615.084 32.136H616.704ZM620.021 39.732L618.005 44.574H616.907L618.221 39.732H620.021ZM635.445 32.136V42H633.807V40.542C633.495 41.046 633.057 41.442 632.493 41.73C631.941 42.006 631.329 42.144 630.657 42.144C629.889 42.144 629.199 41.988 628.587 41.676C627.975 41.352 627.489 40.872 627.129 40.236C626.781 39.6 626.607 38.826 626.607 37.914V32.136H628.227V37.698C628.227 38.67 628.473 39.42 628.965 39.948C629.457 40.464 630.129 40.722 630.981 40.722C631.857 40.722 632.547 40.452 633.051 39.912C633.555 39.372 633.807 38.586 633.807 37.554V32.136H635.445ZM639.848 33.954C640.172 33.39 640.652 32.922 641.288 32.55C641.936 32.166 642.686 31.974 643.538 31.974C644.414 31.974 645.206 32.184 645.914 32.604C646.634 33.024 647.198 33.618 647.606 34.386C648.014 35.142 648.218 36.024 648.218 37.032C648.218 38.028 648.014 38.916 647.606 39.696C647.198 40.476 646.634 41.082 645.914 41.514C645.206 41.946 644.414 42.162 643.538 42.162C642.698 42.162 641.954 41.976 641.306 41.604C640.67 41.22 640.184 40.746 639.848 40.182V46.68H638.21V32.136H639.848V33.954ZM646.544 37.032C646.544 36.288 646.394 35.64 646.094 35.088C645.794 34.536 645.386 34.116 644.87 33.828C644.366 33.54 643.808 33.396 643.196 33.396C642.596 33.396 642.038 33.546 641.522 33.846C641.018 34.134 640.61 34.56 640.298 35.124C639.998 35.676 639.848 36.318 639.848 37.05C639.848 37.794 639.998 38.448 640.298 39.012C640.61 39.564 641.018 39.99 641.522 40.29C642.038 40.578 642.596 40.722 643.196 40.722C643.808 40.722 644.366 40.578 644.87 40.29C645.386 39.99 645.794 39.564 646.094 39.012C646.394 38.448 646.544 37.788 646.544 37.032ZM657.171 33.486V39.3C657.171 39.78 657.273 40.122 657.477 40.326C657.681 40.518 658.035 40.614 658.539 40.614H659.745V42H658.269C657.357 42 656.673 41.79 656.217 41.37C655.761 40.95 655.533 40.26 655.533 39.3V33.486H654.255V32.136H655.533V29.652H657.171V32.136H659.745V33.486H657.171ZM666.032 42.162C665.108 42.162 664.268 41.952 663.512 41.532C662.768 41.112 662.18 40.518 661.748 39.75C661.328 38.97 661.118 38.07 661.118 37.05C661.118 36.042 661.334 35.154 661.766 34.386C662.21 33.606 662.81 33.012 663.566 32.604C664.322 32.184 665.168 31.974 666.104 31.974C667.04 31.974 667.886 32.184 668.642 32.604C669.398 33.012 669.992 33.6 670.424 34.368C670.868 35.136 671.09 36.03 671.09 37.05C671.09 38.07 670.862 38.97 670.406 39.75C669.962 40.518 669.356 41.112 668.588 41.532C667.82 41.952 666.968 42.162 666.032 42.162ZM666.032 40.722C666.62 40.722 667.172 40.584 667.688 40.308C668.204 40.032 668.618 39.618 668.93 39.066C669.254 38.514 669.416 37.842 669.416 37.05C669.416 36.258 669.26 35.586 668.948 35.034C668.636 34.482 668.228 34.074 667.724 33.81C667.22 33.534 666.674 33.396 666.086 33.396C665.486 33.396 664.934 33.534 664.43 33.81C663.938 34.074 663.542 34.482 663.242 35.034C662.942 35.586 662.792 36.258 662.792 37.05C662.792 37.854 662.936 38.532 663.224 39.084C663.524 39.636 663.92 40.05 664.412 40.326C664.904 40.59 665.444 40.722 666.032 40.722ZM685.026 32.082C684.762 30.75 683.94 30.084 682.56 30.084C681.492 30.084 680.694 30.498 680.166 31.326C679.638 32.142 679.38 33.492 679.392 35.376C679.668 34.752 680.124 34.266 680.76 33.918C681.408 33.558 682.128 33.378 682.92 33.378C684.156 33.378 685.14 33.762 685.872 34.53C686.616 35.298 686.988 36.36 686.988 37.716C686.988 38.532 686.826 39.264 686.502 39.912C686.19 40.56 685.71 41.076 685.062 41.46C684.426 41.844 683.652 42.036 682.74 42.036C681.504 42.036 680.538 41.76 679.842 41.208C679.146 40.656 678.66 39.894 678.384 38.922C678.108 37.95 677.97 36.75 677.97 35.322C677.97 30.918 679.506 28.716 682.578 28.716C683.754 28.716 684.678 29.034 685.35 29.67C686.022 30.306 686.418 31.11 686.538 32.082H685.026ZM682.578 34.764C682.062 34.764 681.576 34.872 681.12 35.088C680.664 35.292 680.292 35.61 680.004 36.042C679.728 36.462 679.59 36.978 679.59 37.59C679.59 38.502 679.854 39.246 680.382 39.822C680.91 40.386 681.666 40.668 682.65 40.668C683.49 40.668 684.156 40.41 684.648 39.894C685.152 39.366 685.404 38.658 685.404 37.77C685.404 36.834 685.164 36.102 684.684 35.574C684.204 35.034 683.502 34.764 682.578 34.764ZM706.129 31.956C706.897 31.956 707.581 32.118 708.181 32.442C708.781 32.754 709.255 33.228 709.603 33.864C709.951 34.5 710.125 35.274 710.125 36.186V42H708.505V36.42C708.505 35.436 708.259 34.686 707.767 34.17C707.287 33.642 706.633 33.378 705.805 33.378C704.953 33.378 704.275 33.654 703.771 34.206C703.267 34.746 703.015 35.532 703.015 36.564V42H701.395V36.42C701.395 35.436 701.149 34.686 700.657 34.17C700.177 33.642 699.523 33.378 698.695 33.378C697.843 33.378 697.165 33.654 696.661 34.206C696.157 34.746 695.905 35.532 695.905 36.564V42H694.267V32.136H695.905V33.558C696.229 33.042 696.661 32.646 697.201 32.37C697.753 32.094 698.359 31.956 699.019 31.956C699.847 31.956 700.579 32.142 701.215 32.514C701.851 32.886 702.325 33.432 702.637 34.152C702.913 33.456 703.369 32.916 704.005 32.532C704.641 32.148 705.349 31.956 706.129 31.956ZM717.114 42.162C716.19 42.162 715.35 41.952 714.594 41.532C713.85 41.112 713.262 40.518 712.83 39.75C712.41 38.97 712.2 38.07 712.2 37.05C712.2 36.042 712.416 35.154 712.848 34.386C713.292 33.606 713.892 33.012 714.648 32.604C715.404 32.184 716.25 31.974 717.186 31.974C718.122 31.974 718.968 32.184 719.724 32.604C720.48 33.012 721.074 33.6 721.506 34.368C721.95 35.136 722.172 36.03 722.172 37.05C722.172 38.07 721.944 38.97 721.488 39.75C721.044 40.518 720.438 41.112 719.67 41.532C718.902 41.952 718.05 42.162 717.114 42.162ZM717.114 40.722C717.702 40.722 718.254 40.584 718.77 40.308C719.286 40.032 719.7 39.618 720.012 39.066C720.336 38.514 720.498 37.842 720.498 37.05C720.498 36.258 720.342 35.586 720.03 35.034C719.718 34.482 719.31 34.074 718.806 33.81C718.302 33.534 717.756 33.396 717.168 33.396C716.568 33.396 716.016 33.534 715.512 33.81C715.02 34.074 714.624 34.482 714.324 35.034C714.024 35.586 713.874 36.258 713.874 37.05C713.874 37.854 714.018 38.532 714.306 39.084C714.606 39.636 715.002 40.05 715.494 40.326C715.986 40.59 716.526 40.722 717.114 40.722ZM729.131 31.956C730.331 31.956 731.303 32.322 732.047 33.054C732.791 33.774 733.163 34.818 733.163 36.186V42H731.543V36.42C731.543 35.436 731.297 34.686 730.805 34.17C730.313 33.642 729.641 33.378 728.789 33.378C727.925 33.378 727.235 33.648 726.719 34.188C726.215 34.728 725.963 35.514 725.963 36.546V42H724.325V32.136H725.963V33.54C726.287 33.036 726.725 32.646 727.277 32.37C727.841 32.094 728.459 31.956 729.131 31.956ZM737.837 33.486V39.3C737.837 39.78 737.939 40.122 738.143 40.326C738.347 40.518 738.701 40.614 739.205 40.614H740.411V42H738.935C738.023 42 737.339 41.79 736.883 41.37C736.427 40.95 736.199 40.26 736.199 39.3V33.486H734.921V32.136H736.199V29.652H737.837V32.136H740.411V33.486H737.837ZM747.292 31.956C748.036 31.956 748.708 32.118 749.308 32.442C749.908 32.754 750.376 33.228 750.712 33.864C751.06 34.5 751.234 35.274 751.234 36.186V42H749.614V36.42C749.614 35.436 749.368 34.686 748.876 34.17C748.384 33.642 747.712 33.378 746.86 33.378C745.996 33.378 745.306 33.648 744.79 34.188C744.286 34.728 744.034 35.514 744.034 36.546V42H742.396V28.68H744.034V33.54C744.358 33.036 744.802 32.646 745.366 32.37C745.942 32.094 746.584 31.956 747.292 31.956ZM757.401 42.162C756.645 42.162 755.967 42.036 755.367 41.784C754.767 41.52 754.293 41.16 753.945 40.704C753.597 40.236 753.405 39.702 753.369 39.102H755.061C755.109 39.594 755.337 39.996 755.745 40.308C756.165 40.62 756.711 40.776 757.383 40.776C758.007 40.776 758.499 40.638 758.859 40.362C759.219 40.086 759.399 39.738 759.399 39.318C759.399 38.886 759.207 38.568 758.823 38.364C758.439 38.148 757.845 37.938 757.041 37.734C756.309 37.542 755.709 37.35 755.241 37.158C754.785 36.954 754.389 36.66 754.053 36.276C753.729 35.88 753.567 35.364 753.567 34.728C753.567 34.224 753.717 33.762 754.017 33.342C754.317 32.922 754.743 32.592 755.295 32.352C755.847 32.1 756.477 31.974 757.185 31.974C758.277 31.974 759.159 32.25 759.831 32.802C760.503 33.354 760.863 34.11 760.911 35.07H759.273C759.237 34.554 759.027 34.14 758.643 33.828C758.271 33.516 757.767 33.36 757.131 33.36C756.543 33.36 756.075 33.486 755.727 33.738C755.379 33.99 755.205 34.32 755.205 34.728C755.205 35.052 755.307 35.322 755.511 35.538C755.727 35.742 755.991 35.91 756.303 36.042C756.627 36.162 757.071 36.3 757.635 36.456C758.343 36.648 758.919 36.84 759.363 37.032C759.807 37.212 760.185 37.488 760.497 37.86C760.821 38.232 760.989 38.718 761.001 39.318C761.001 39.858 760.851 40.344 760.551 40.776C760.251 41.208 759.825 41.55 759.273 41.802C758.733 42.042 758.109 42.162 757.401 42.162ZM768.959 30.534C768.647 30.534 768.383 30.426 768.167 30.21C767.951 29.994 767.843 29.73 767.843 29.418C767.843 29.106 767.951 28.842 768.167 28.626C768.383 28.41 768.647 28.302 768.959 28.302C769.259 28.302 769.511 28.41 769.715 28.626C769.931 28.842 770.039 29.106 770.039 29.418C770.039 29.73 769.931 29.994 769.715 30.21C769.511 30.426 769.259 30.534 768.959 30.534ZM769.751 32.136V42H768.113V32.136H769.751ZM777.348 31.956C778.548 31.956 779.52 32.322 780.264 33.054C781.008 33.774 781.38 34.818 781.38 36.186V42H779.76V36.42C779.76 35.436 779.514 34.686 779.022 34.17C778.53 33.642 777.858 33.378 777.006 33.378C776.142 33.378 775.452 33.648 774.936 34.188C774.432 34.728 774.18 35.514 774.18 36.546V42H772.542V32.136H774.18V33.54C774.504 33.036 774.942 32.646 775.494 32.37C776.058 32.094 776.676 31.956 777.348 31.956ZM786.054 33.486V39.3C786.054 39.78 786.156 40.122 786.36 40.326C786.564 40.518 786.918 40.614 787.422 40.614H788.628V42H787.152C786.24 42 785.556 41.79 785.1 41.37C784.644 40.95 784.416 40.26 784.416 39.3V33.486H783.138V32.136H784.416V29.652H786.054V32.136H788.628V33.486H786.054ZM799.613 36.69C799.613 37.002 799.595 37.332 799.559 37.68H791.675C791.735 38.652 792.065 39.414 792.665 39.966C793.277 40.506 794.015 40.776 794.879 40.776C795.587 40.776 796.175 40.614 796.643 40.29C797.123 39.954 797.459 39.51 797.651 38.958H799.415C799.151 39.906 798.623 40.68 797.831 41.28C797.039 41.868 796.055 42.162 794.879 42.162C793.943 42.162 793.103 41.952 792.359 41.532C791.627 41.112 791.051 40.518 790.631 39.75C790.211 38.97 790.001 38.07 790.001 37.05C790.001 36.03 790.205 35.136 790.613 34.368C791.021 33.6 791.591 33.012 792.323 32.604C793.067 32.184 793.919 31.974 794.879 31.974C795.815 31.974 796.643 32.178 797.363 32.586C798.083 32.994 798.635 33.558 799.019 34.278C799.415 34.986 799.613 35.79 799.613 36.69ZM797.921 36.348C797.921 35.724 797.783 35.19 797.507 34.746C797.231 34.29 796.853 33.948 796.373 33.72C795.905 33.48 795.383 33.36 794.807 33.36C793.979 33.36 793.271 33.624 792.683 34.152C792.107 34.68 791.777 35.412 791.693 36.348H797.921ZM803.413 33.738C803.701 33.174 804.109 32.736 804.637 32.424C805.177 32.112 805.831 31.956 806.599 31.956V33.648H806.167C804.331 33.648 803.413 34.644 803.413 36.636V42H801.775V32.136H803.413V33.738ZM817.49 36.69C817.49 37.002 817.472 37.332 817.436 37.68H809.552C809.612 38.652 809.942 39.414 810.542 39.966C811.154 40.506 811.892 40.776 812.756 40.776C813.464 40.776 814.052 40.614 814.52 40.29C815 39.954 815.336 39.51 815.528 38.958H817.292C817.028 39.906 816.5 40.68 815.708 41.28C814.916 41.868 813.932 42.162 812.756 42.162C811.82 42.162 810.98 41.952 810.236 41.532C809.504 41.112 808.928 40.518 808.508 39.75C808.088 38.97 807.878 38.07 807.878 37.05C807.878 36.03 808.082 35.136 808.49 34.368C808.898 33.6 809.468 33.012 810.2 32.604C810.944 32.184 811.796 31.974 812.756 31.974C813.692 31.974 814.52 32.178 815.24 32.586C815.96 32.994 816.512 33.558 816.896 34.278C817.292 34.986 817.49 35.79 817.49 36.69ZM815.798 36.348C815.798 35.724 815.66 35.19 815.384 34.746C815.108 34.29 814.73 33.948 814.25 33.72C813.782 33.48 813.26 33.36 812.684 33.36C811.856 33.36 811.148 33.624 810.56 34.152C809.984 34.68 809.654 35.412 809.57 36.348H815.798ZM823.144 42.162C822.388 42.162 821.71 42.036 821.11 41.784C820.51 41.52 820.036 41.16 819.688 40.704C819.34 40.236 819.148 39.702 819.112 39.102H820.804C820.852 39.594 821.08 39.996 821.488 40.308C821.908 40.62 822.454 40.776 823.126 40.776C823.75 40.776 824.242 40.638 824.602 40.362C824.962 40.086 825.142 39.738 825.142 39.318C825.142 38.886 824.95 38.568 824.566 38.364C824.182 38.148 823.588 37.938 822.784 37.734C822.052 37.542 821.452 37.35 820.984 37.158C820.528 36.954 820.132 36.66 819.796 36.276C819.472 35.88 819.31 35.364 819.31 34.728C819.31 34.224 819.46 33.762 819.76 33.342C820.06 32.922 820.486 32.592 821.038 32.352C821.59 32.1 822.22 31.974 822.928 31.974C824.02 31.974 824.902 32.25 825.574 32.802C826.246 33.354 826.606 34.11 826.654 35.07H825.016C824.98 34.554 824.77 34.14 824.386 33.828C824.014 33.516 823.51 33.36 822.874 33.36C822.286 33.36 821.818 33.486 821.47 33.738C821.122 33.99 820.948 34.32 820.948 34.728C820.948 35.052 821.05 35.322 821.254 35.538C821.47 35.742 821.734 35.91 822.046 36.042C822.37 36.162 822.814 36.3 823.378 36.456C824.086 36.648 824.662 36.84 825.106 37.032C825.55 37.212 825.928 37.488 826.24 37.86C826.564 38.232 826.732 38.718 826.744 39.318C826.744 39.858 826.594 40.344 826.294 40.776C825.994 41.208 825.568 41.55 825.016 41.802C824.476 42.042 823.852 42.162 823.144 42.162ZM831.054 33.486V39.3C831.054 39.78 831.156 40.122 831.36 40.326C831.564 40.518 831.918 40.614 832.422 40.614H833.628V42H832.152C831.24 42 830.556 41.79 830.1 41.37C829.644 40.95 829.416 40.26 829.416 39.3V33.486H828.138V32.136H829.416V29.652H831.054V32.136H833.628V33.486H831.054ZM844.425 33.486H842.355V42H840.717V33.486H839.439V32.136H840.717V31.434C840.717 30.33 840.999 29.526 841.563 29.022C842.139 28.506 843.057 28.248 844.317 28.248V29.616C843.597 29.616 843.087 29.76 842.787 30.048C842.499 30.324 842.355 30.786 842.355 31.434V32.136H844.425V33.486ZM847.973 33.738C848.261 33.174 848.669 32.736 849.197 32.424C849.737 32.112 850.391 31.956 851.159 31.956V33.648H850.727C848.891 33.648 847.973 34.644 847.973 36.636V42H846.335V32.136H847.973V33.738ZM862.05 36.69C862.05 37.002 862.032 37.332 861.996 37.68H854.112C854.172 38.652 854.502 39.414 855.102 39.966C855.714 40.506 856.452 40.776 857.316 40.776C858.024 40.776 858.612 40.614 859.08 40.29C859.56 39.954 859.896 39.51 860.088 38.958H861.852C861.588 39.906 861.06 40.68 860.268 41.28C859.476 41.868 858.492 42.162 857.316 42.162C856.38 42.162 855.54 41.952 854.796 41.532C854.064 41.112 853.488 40.518 853.068 39.75C852.648 38.97 852.438 38.07 852.438 37.05C852.438 36.03 852.642 35.136 853.05 34.368C853.458 33.6 854.028 33.012 854.76 32.604C855.504 32.184 856.356 31.974 857.316 31.974C858.252 31.974 859.08 32.178 859.8 32.586C860.52 32.994 861.072 33.558 861.456 34.278C861.852 34.986 862.05 35.79 862.05 36.69ZM860.358 36.348C860.358 35.724 860.22 35.19 859.944 34.746C859.668 34.29 859.29 33.948 858.81 33.72C858.342 33.48 857.82 33.36 857.244 33.36C856.416 33.36 855.708 33.624 855.12 34.152C854.544 34.68 854.214 35.412 854.13 36.348H860.358ZM873.212 36.69C873.212 37.002 873.194 37.332 873.158 37.68H865.274C865.334 38.652 865.664 39.414 866.264 39.966C866.876 40.506 867.614 40.776 868.478 40.776C869.186 40.776 869.774 40.614 870.242 40.29C870.722 39.954 871.058 39.51 871.25 38.958H873.014C872.75 39.906 872.222 40.68 871.43 41.28C870.638 41.868 869.654 42.162 868.478 42.162C867.542 42.162 866.702 41.952 865.958 41.532C865.226 41.112 864.65 40.518 864.23 39.75C863.81 38.97 863.6 38.07 863.6 37.05C863.6 36.03 863.804 35.136 864.212 34.368C864.62 33.6 865.19 33.012 865.922 32.604C866.666 32.184 867.518 31.974 868.478 31.974C869.414 31.974 870.242 32.178 870.962 32.586C871.682 32.994 872.234 33.558 872.618 34.278C873.014 34.986 873.212 35.79 873.212 36.69ZM871.52 36.348C871.52 35.724 871.382 35.19 871.106 34.746C870.83 34.29 870.452 33.948 869.972 33.72C869.504 33.48 868.982 33.36 868.406 33.36C867.578 33.36 866.87 33.624 866.282 34.152C865.706 34.68 865.376 35.412 865.292 36.348H871.52ZM881.139 31.64V42H879.865V31.64H881.139ZM890.31 37.87C890.31 38.1127 890.296 38.3693 890.268 38.64H884.136C884.183 39.396 884.44 39.9887 884.906 40.418C885.382 40.838 885.956 41.048 886.628 41.048C887.179 41.048 887.636 40.922 888 40.67C888.374 40.4087 888.635 40.0633 888.784 39.634H890.156C889.951 40.3713 889.54 40.9733 888.924 41.44C888.308 41.8973 887.543 42.126 886.628 42.126C885.9 42.126 885.247 41.9627 884.668 41.636C884.099 41.3093 883.651 40.8473 883.324 40.25C882.998 39.6433 882.834 38.9433 882.834 38.15C882.834 37.3567 882.993 36.6613 883.31 36.064C883.628 35.4667 884.071 35.0093 884.64 34.692C885.219 34.3653 885.882 34.202 886.628 34.202C887.356 34.202 888 34.3607 888.56 34.678C889.12 34.9953 889.55 35.434 889.848 35.994C890.156 36.5447 890.31 37.17 890.31 37.87ZM888.994 37.604C888.994 37.1187 888.887 36.7033 888.672 36.358C888.458 36.0033 888.164 35.7373 887.79 35.56C887.426 35.3733 887.02 35.28 886.572 35.28C885.928 35.28 885.378 35.4853 884.92 35.896C884.472 36.3067 884.216 36.876 884.15 37.604H888.994ZM891.516 38.136C891.516 37.352 891.675 36.666 891.992 36.078C892.309 35.4807 892.743 35.0187 893.294 34.692C893.854 34.3653 894.475 34.202 895.156 34.202C895.828 34.202 896.411 34.3467 896.906 34.636C897.401 34.9253 897.769 35.2893 898.012 35.728V34.328H899.3V42H898.012V40.572C897.76 41.02 897.382 41.3933 896.878 41.692C896.383 41.9813 895.805 42.126 895.142 42.126C894.461 42.126 893.845 41.958 893.294 41.622C892.743 41.286 892.309 40.8147 891.992 40.208C891.675 39.6013 891.516 38.9107 891.516 38.136ZM898.012 38.15C898.012 37.5713 897.895 37.0673 897.662 36.638C897.429 36.2087 897.111 35.882 896.71 35.658C896.318 35.4247 895.884 35.308 895.408 35.308C894.932 35.308 894.498 35.42 894.106 35.644C893.714 35.868 893.401 36.1947 893.168 36.624C892.935 37.0533 892.818 37.5573 892.818 38.136C892.818 38.724 892.935 39.2373 893.168 39.676C893.401 40.1053 893.714 40.4367 894.106 40.67C894.498 40.894 894.932 41.006 895.408 41.006C895.884 41.006 896.318 40.894 896.71 40.67C897.111 40.4367 897.429 40.1053 897.662 39.676C897.895 39.2373 898.012 38.7287 898.012 38.15ZM902.727 35.574C902.951 35.1353 903.268 34.7947 903.679 34.552C904.099 34.3093 904.608 34.188 905.205 34.188V35.504H904.869C903.441 35.504 902.727 36.2787 902.727 37.828V42H901.453V34.328H902.727V35.574ZM910.414 34.188C911.347 34.188 912.103 34.4727 912.682 35.042C913.26 35.602 913.55 36.414 913.55 37.478V42H912.29V37.66C912.29 36.8947 912.098 36.3113 911.716 35.91C911.333 35.4993 910.81 35.294 910.148 35.294C909.476 35.294 908.939 35.504 908.538 35.924C908.146 36.344 907.95 36.9553 907.95 37.758V42H906.676V34.328H907.95V35.42C908.202 35.028 908.542 34.7247 908.972 34.51C909.41 34.2953 909.891 34.188 910.414 34.188ZM928.589 34.188C929.186 34.188 929.718 34.314 930.185 34.566C930.652 34.8087 931.02 35.1773 931.291 35.672C931.562 36.1667 931.697 36.7687 931.697 37.478V42H930.437V37.66C930.437 36.8947 930.246 36.3113 929.863 35.91C929.49 35.4993 928.981 35.294 928.337 35.294C927.674 35.294 927.147 35.5087 926.755 35.938C926.363 36.358 926.167 36.9693 926.167 37.772V42H924.907V37.66C924.907 36.8947 924.716 36.3113 924.333 35.91C923.96 35.4993 923.451 35.294 922.807 35.294C922.144 35.294 921.617 35.5087 921.225 35.938C920.833 36.358 920.637 36.9693 920.637 37.772V42H919.363V34.328H920.637V35.434C920.889 35.0327 921.225 34.7247 921.645 34.51C922.074 34.2953 922.546 34.188 923.059 34.188C923.703 34.188 924.272 34.3327 924.767 34.622C925.262 34.9113 925.63 35.336 925.873 35.896C926.088 35.3547 926.442 34.9347 926.937 34.636C927.432 34.3373 927.982 34.188 928.589 34.188ZM937.133 42.126C936.414 42.126 935.761 41.9627 935.173 41.636C934.594 41.3093 934.137 40.8473 933.801 40.25C933.474 39.6433 933.311 38.9433 933.311 38.15C933.311 37.366 933.479 36.6753 933.815 36.078C934.16 35.4713 934.627 35.0093 935.215 34.692C935.803 34.3653 936.461 34.202 937.189 34.202C937.917 34.202 938.575 34.3653 939.163 34.692C939.751 35.0093 940.213 35.4667 940.549 36.064C940.894 36.6613 941.067 37.3567 941.067 38.15C941.067 38.9433 940.89 39.6433 940.535 40.25C940.19 40.8473 939.718 41.3093 939.121 41.636C938.524 41.9627 937.861 42.126 937.133 42.126ZM937.133 41.006C937.59 41.006 938.02 40.8987 938.421 40.684C938.822 40.4693 939.144 40.1473 939.387 39.718C939.639 39.2887 939.765 38.766 939.765 38.15C939.765 37.534 939.644 37.0113 939.401 36.582C939.158 36.1527 938.841 35.8353 938.449 35.63C938.057 35.4153 937.632 35.308 937.175 35.308C936.708 35.308 936.279 35.4153 935.887 35.63C935.504 35.8353 935.196 36.1527 934.963 36.582C934.73 37.0113 934.613 37.534 934.613 38.15C934.613 38.7753 934.725 39.3027 934.949 39.732C935.182 40.1613 935.49 40.4833 935.873 40.698C936.256 40.9033 936.676 41.006 937.133 41.006ZM944.016 35.574C944.24 35.1353 944.557 34.7947 944.968 34.552C945.388 34.3093 945.897 34.188 946.494 34.188V35.504H946.158C944.73 35.504 944.016 36.2787 944.016 37.828V42H942.742V34.328H944.016V35.574ZM954.965 37.87C954.965 38.1127 954.951 38.3693 954.923 38.64H948.791C948.837 39.396 949.094 39.9887 949.561 40.418C950.037 40.838 950.611 41.048 951.283 41.048C951.833 41.048 952.291 40.922 952.655 40.67C953.028 40.4087 953.289 40.0633 953.439 39.634H954.811C954.605 40.3713 954.195 40.9733 953.579 41.44C952.963 41.8973 952.197 42.126 951.283 42.126C950.555 42.126 949.901 41.9627 949.323 41.636C948.753 41.3093 948.305 40.8473 947.979 40.25C947.652 39.6433 947.489 38.9433 947.489 38.15C947.489 37.3567 947.647 36.6613 947.965 36.064C948.282 35.4667 948.725 35.0093 949.295 34.692C949.873 34.3653 950.536 34.202 951.283 34.202C952.011 34.202 952.655 34.3607 953.215 34.678C953.775 34.9953 954.204 35.434 954.503 35.994C954.811 36.5447 954.965 37.17 954.965 37.87ZM953.649 37.604C953.649 37.1187 953.541 36.7033 953.327 36.358C953.112 36.0033 952.818 35.7373 952.445 35.56C952.081 35.3733 951.675 35.28 951.227 35.28C950.583 35.28 950.032 35.4853 949.575 35.896C949.127 36.3067 948.87 36.876 948.805 37.604H953.649Z" fill="#272560"/>
<path d="M878.787 43.4H955.567V44.1H878.787V43.4Z" fill="#272560"/>
<defs>
<clipPath id="clip0">
<rect width="77" height="27" fill="white" transform="translate(417 21)"/>
</clipPath>
</defs>
</svg>
